<mxfile host="Electron" agent="Mozilla/5.0 (Windows NT 10.0; Win64; x64) AppleWebKit/537.36 (KHTML, like Gecko) draw.io/24.7.8 Chrome/128.0.6613.36 Electron/32.0.1 Safari/537.36" version="24.7.8">
  <diagram name="Page-1" id="zC-oVZLsw0-p_qAeEjPK">
    <mxGraphModel dx="1434" dy="956" grid="1" gridSize="10" guides="1" tooltips="1" connect="1" arrows="1" fold="1" page="1" pageScale="1" pageWidth="850" pageHeight="1100" math="0" shadow="0">
      <root>
        <mxCell id="0" />
        <mxCell id="1" parent="0" />
        <mxCell id="KnVlmvtx4ytp12yEs0FF-20" style="edgeStyle=orthogonalEdgeStyle;shape=connector;rounded=0;sketch=1;jiggle=2;curveFitting=1;orthogonalLoop=1;jettySize=auto;html=1;exitX=0.55;exitY=0.95;exitDx=0;exitDy=0;exitPerimeter=0;strokeColor=default;align=center;verticalAlign=middle;fontFamily=Gloria Hallelujah;fontSource=https%3A%2F%2Ffonts.googleapis.com%2Fcss%3Ffamily%3DGloria%2BHallelujah;fontSize=20;fontColor=default;labelBackgroundColor=default;endArrow=classic;" edge="1" parent="1" source="KnVlmvtx4ytp12yEs0FF-1" target="KnVlmvtx4ytp12yEs0FF-16">
          <mxGeometry relative="1" as="geometry" />
        </mxCell>
        <mxCell id="KnVlmvtx4ytp12yEs0FF-1" value="Prisma Cloud" style="ellipse;shape=cloud;whiteSpace=wrap;html=1;sketch=1;curveFitting=1;jiggle=2;fontFamily=Gloria Hallelujah;fontSource=https%3A%2F%2Ffonts.googleapis.com%2Fcss%3Ffamily%3DGloria%2BHallelujah;fontSize=20;" vertex="1" parent="1">
          <mxGeometry x="310" y="260" width="210" height="140" as="geometry" />
        </mxCell>
        <mxCell id="KnVlmvtx4ytp12yEs0FF-2" value="CSPM Compliance Standard" style="swimlane;fontStyle=0;childLayout=stackLayout;horizontal=1;startSize=30;horizontalStack=0;resizeParent=1;resizeParentMax=0;resizeLast=0;collapsible=1;marginBottom=0;whiteSpace=wrap;html=1;sketch=1;curveFitting=1;jiggle=2;fontFamily=Gloria Hallelujah;fontSource=https%3A%2F%2Ffonts.googleapis.com%2Fcss%3Ffamily%3DGloria%2BHallelujah;fontSize=18;" vertex="1" parent="1">
          <mxGeometry x="150" y="480" width="280" height="120" as="geometry" />
        </mxCell>
        <mxCell id="KnVlmvtx4ytp12yEs0FF-3" value="ISO 27001" style="text;strokeColor=none;fillColor=none;align=left;verticalAlign=middle;spacingLeft=4;spacingRight=4;overflow=hidden;points=[[0,0.5],[1,0.5]];portConstraint=eastwest;rotatable=0;whiteSpace=wrap;html=1;fontFamily=Gloria Hallelujah;fontSource=https%3A%2F%2Ffonts.googleapis.com%2Fcss%3Ffamily%3DGloria%2BHallelujah;fontSize=16;" vertex="1" parent="KnVlmvtx4ytp12yEs0FF-2">
          <mxGeometry y="30" width="280" height="30" as="geometry" />
        </mxCell>
        <mxCell id="KnVlmvtx4ytp12yEs0FF-4" value="CIS&amp;nbsp;" style="text;strokeColor=none;fillColor=none;align=left;verticalAlign=middle;spacingLeft=4;spacingRight=4;overflow=hidden;points=[[0,0.5],[1,0.5]];portConstraint=eastwest;rotatable=0;whiteSpace=wrap;html=1;fontFamily=Gloria Hallelujah;fontSource=https%3A%2F%2Ffonts.googleapis.com%2Fcss%3Ffamily%3DGloria%2BHallelujah;fontSize=16;" vertex="1" parent="KnVlmvtx4ytp12yEs0FF-2">
          <mxGeometry y="60" width="280" height="30" as="geometry" />
        </mxCell>
        <mxCell id="KnVlmvtx4ytp12yEs0FF-5" value="Custom Security Standards" style="text;strokeColor=none;fillColor=none;align=left;verticalAlign=middle;spacingLeft=4;spacingRight=4;overflow=hidden;points=[[0,0.5],[1,0.5]];portConstraint=eastwest;rotatable=0;whiteSpace=wrap;html=1;fontFamily=Gloria Hallelujah;fontSource=https%3A%2F%2Ffonts.googleapis.com%2Fcss%3Ffamily%3DGloria%2BHallelujah;fontSize=16;" vertex="1" parent="KnVlmvtx4ytp12yEs0FF-2">
          <mxGeometry y="90" width="280" height="30" as="geometry" />
        </mxCell>
        <mxCell id="KnVlmvtx4ytp12yEs0FF-7" value="Terraform&lt;div style=&quot;font-size: 18px;&quot;&gt;Provider&lt;/div&gt;" style="rounded=1;whiteSpace=wrap;html=1;sketch=1;jiggle=2;curveFitting=1;strokeColor=default;align=center;verticalAlign=middle;fontFamily=Gloria Hallelujah;fontSource=https%3A%2F%2Ffonts.googleapis.com%2Fcss%3Ffamily%3DGloria%2BHallelujah;fontSize=18;fontColor=default;fillColor=default;" vertex="1" parent="1">
          <mxGeometry x="130" y="270" width="120" height="60" as="geometry" />
        </mxCell>
        <mxCell id="KnVlmvtx4ytp12yEs0FF-8" style="edgeStyle=orthogonalEdgeStyle;rounded=0;orthogonalLoop=1;jettySize=auto;html=1;entryX=0.07;entryY=0.4;entryDx=0;entryDy=0;entryPerimeter=0;fontFamily=Gloria Hallelujah;fontSource=https%3A%2F%2Ffonts.googleapis.com%2Fcss%3Ffamily%3DGloria%2BHallelujah;fontSize=20;fontColor=default;sketch=1;curveFitting=1;jiggle=2;" edge="1" parent="1" source="KnVlmvtx4ytp12yEs0FF-7" target="KnVlmvtx4ytp12yEs0FF-1">
          <mxGeometry relative="1" as="geometry" />
        </mxCell>
        <mxCell id="KnVlmvtx4ytp12yEs0FF-11" style="edgeStyle=orthogonalEdgeStyle;shape=connector;rounded=0;sketch=1;jiggle=2;curveFitting=1;orthogonalLoop=1;jettySize=auto;html=1;exitX=1;exitY=0.5;exitDx=0;exitDy=0;strokeColor=default;align=center;verticalAlign=middle;fontFamily=Gloria Hallelujah;fontSource=https%3A%2F%2Ffonts.googleapis.com%2Fcss%3Ffamily%3DGloria%2BHallelujah;fontSize=20;fontColor=default;labelBackgroundColor=default;endArrow=classic;" edge="1" parent="1" source="KnVlmvtx4ytp12yEs0FF-9" target="KnVlmvtx4ytp12yEs0FF-1">
          <mxGeometry relative="1" as="geometry" />
        </mxCell>
        <mxCell id="KnVlmvtx4ytp12yEs0FF-9" value="API" style="rounded=1;whiteSpace=wrap;html=1;sketch=1;jiggle=2;curveFitting=1;strokeColor=default;align=center;verticalAlign=middle;fontFamily=Gloria Hallelujah;fontSource=https%3A%2F%2Ffonts.googleapis.com%2Fcss%3Ffamily%3DGloria%2BHallelujah;fontSize=18;fontColor=default;fillColor=default;" vertex="1" parent="1">
          <mxGeometry x="130" y="360" width="120" height="60" as="geometry" />
        </mxCell>
        <mxCell id="KnVlmvtx4ytp12yEs0FF-12" value="Python&lt;div&gt;SDK&lt;/div&gt;" style="rounded=1;whiteSpace=wrap;html=1;sketch=1;jiggle=2;curveFitting=1;strokeColor=default;align=center;verticalAlign=middle;fontFamily=Gloria Hallelujah;fontSource=https%3A%2F%2Ffonts.googleapis.com%2Fcss%3Ffamily%3DGloria%2BHallelujah;fontSize=18;fontColor=default;fillColor=default;" vertex="1" parent="1">
          <mxGeometry x="590" y="270" width="120" height="60" as="geometry" />
        </mxCell>
        <mxCell id="KnVlmvtx4ytp12yEs0FF-13" style="edgeStyle=orthogonalEdgeStyle;shape=connector;rounded=0;sketch=1;jiggle=2;curveFitting=1;orthogonalLoop=1;jettySize=auto;html=1;entryX=0.929;entryY=0.4;entryDx=0;entryDy=0;entryPerimeter=0;strokeColor=default;align=center;verticalAlign=middle;fontFamily=Gloria Hallelujah;fontSource=https%3A%2F%2Ffonts.googleapis.com%2Fcss%3Ffamily%3DGloria%2BHallelujah;fontSize=20;fontColor=default;labelBackgroundColor=default;endArrow=classic;" edge="1" parent="1" source="KnVlmvtx4ytp12yEs0FF-12" target="KnVlmvtx4ytp12yEs0FF-1">
          <mxGeometry relative="1" as="geometry" />
        </mxCell>
        <mxCell id="KnVlmvtx4ytp12yEs0FF-14" value="XSOAR" style="rounded=1;whiteSpace=wrap;html=1;sketch=1;jiggle=2;curveFitting=1;strokeColor=default;align=center;verticalAlign=middle;fontFamily=Gloria Hallelujah;fontSource=https%3A%2F%2Ffonts.googleapis.com%2Fcss%3Ffamily%3DGloria%2BHallelujah;fontSize=18;fontColor=default;fillColor=default;" vertex="1" parent="1">
          <mxGeometry x="590" y="360" width="120" height="60" as="geometry" />
        </mxCell>
        <mxCell id="KnVlmvtx4ytp12yEs0FF-15" style="edgeStyle=orthogonalEdgeStyle;shape=connector;rounded=0;sketch=1;jiggle=2;curveFitting=1;orthogonalLoop=1;jettySize=auto;html=1;entryX=0.96;entryY=0.7;entryDx=0;entryDy=0;entryPerimeter=0;strokeColor=default;align=center;verticalAlign=middle;fontFamily=Gloria Hallelujah;fontSource=https%3A%2F%2Ffonts.googleapis.com%2Fcss%3Ffamily%3DGloria%2BHallelujah;fontSize=20;fontColor=default;labelBackgroundColor=default;endArrow=classic;" edge="1" parent="1" source="KnVlmvtx4ytp12yEs0FF-14" target="KnVlmvtx4ytp12yEs0FF-1">
          <mxGeometry relative="1" as="geometry" />
        </mxCell>
        <mxCell id="KnVlmvtx4ytp12yEs0FF-6" style="edgeStyle=orthogonalEdgeStyle;rounded=0;orthogonalLoop=1;jettySize=auto;html=1;exitX=0.405;exitY=0.921;exitDx=0;exitDy=0;exitPerimeter=0;fontFamily=Gloria Hallelujah;fontSource=https%3A%2F%2Ffonts.googleapis.com%2Fcss%3Ffamily%3DGloria%2BHallelujah;fontSize=20;fontColor=default;sketch=1;curveFitting=1;jiggle=2;" edge="1" parent="1" source="KnVlmvtx4ytp12yEs0FF-1" target="KnVlmvtx4ytp12yEs0FF-2">
          <mxGeometry relative="1" as="geometry" />
        </mxCell>
        <mxCell id="KnVlmvtx4ytp12yEs0FF-16" value="CWP Compliance Standard" style="swimlane;fontStyle=0;childLayout=stackLayout;horizontal=1;startSize=30;horizontalStack=0;resizeParent=1;resizeParentMax=0;resizeLast=0;collapsible=1;marginBottom=0;whiteSpace=wrap;html=1;sketch=1;curveFitting=1;jiggle=2;fontFamily=Gloria Hallelujah;fontSource=https%3A%2F%2Ffonts.googleapis.com%2Fcss%3Ffamily%3DGloria%2BHallelujah;fontSize=18;" vertex="1" parent="1">
          <mxGeometry x="450" y="480" width="280" height="120" as="geometry" />
        </mxCell>
        <mxCell id="KnVlmvtx4ytp12yEs0FF-17" value="CIS k8s" style="text;strokeColor=none;fillColor=none;align=left;verticalAlign=middle;spacingLeft=4;spacingRight=4;overflow=hidden;points=[[0,0.5],[1,0.5]];portConstraint=eastwest;rotatable=0;whiteSpace=wrap;html=1;fontFamily=Gloria Hallelujah;fontSource=https%3A%2F%2Ffonts.googleapis.com%2Fcss%3Ffamily%3DGloria%2BHallelujah;fontSize=16;" vertex="1" parent="KnVlmvtx4ytp12yEs0FF-16">
          <mxGeometry y="30" width="280" height="30" as="geometry" />
        </mxCell>
        <mxCell id="KnVlmvtx4ytp12yEs0FF-18" value="CIS Openshift" style="text;strokeColor=none;fillColor=none;align=left;verticalAlign=middle;spacingLeft=4;spacingRight=4;overflow=hidden;points=[[0,0.5],[1,0.5]];portConstraint=eastwest;rotatable=0;whiteSpace=wrap;html=1;fontFamily=Gloria Hallelujah;fontSource=https%3A%2F%2Ffonts.googleapis.com%2Fcss%3Ffamily%3DGloria%2BHallelujah;fontSize=16;" vertex="1" parent="KnVlmvtx4ytp12yEs0FF-16">
          <mxGeometry y="60" width="280" height="30" as="geometry" />
        </mxCell>
        <mxCell id="KnVlmvtx4ytp12yEs0FF-19" value="Custom Checking Rules" style="text;strokeColor=none;fillColor=none;align=left;verticalAlign=middle;spacingLeft=4;spacingRight=4;overflow=hidden;points=[[0,0.5],[1,0.5]];portConstraint=eastwest;rotatable=0;whiteSpace=wrap;html=1;fontFamily=Gloria Hallelujah;fontSource=https%3A%2F%2Ffonts.googleapis.com%2Fcss%3Ffamily%3DGloria%2BHallelujah;fontSize=16;" vertex="1" parent="KnVlmvtx4ytp12yEs0FF-16">
          <mxGeometry y="90" width="280" height="30" as="geometry" />
        </mxCell>
      </root>
    </mxGraphModel>
  </diagram>
</mxfile>
